<svg width="574" height="436" viewBox="0 0 574 436" fill="none" xmlns="http://www.w3.org/2000/svg">
<g clip-path="url(#clip0)">
<path d="M278.641 226.78C269.421 216.91 236.271 179.02 235.201 120.59C233.951 52.7 276.931 8.12 285.041 0C294.341 10 332.111 53.17 329.561 116.26C329.181 125.73 326.911 181.91 285.561 220.76C282.761 223.37 280.331 225.41 278.641 226.78Z" fill="url(#paint0_linear)" fill-opacity="0.8"/>
<path d="M254.04 241.62C240.44 251.29 188.84 285.13 122.65 263.85C45.75 239.13 6.98 158.62 0 143.53C13.81 133.81 72.55 95.24 143 123.65C153.58 127.92 216.32 153.22 249.07 229.13C251.3 234.23 252.95 238.6 254.04 241.62Z" fill="url(#paint1_linear)" fill-opacity="0.8"/>
<path d="M318.98 241.62C332.58 251.29 384.18 285.13 450.37 263.85C527.26 239.13 566.04 158.62 573.02 143.53C559.21 133.81 500.46 95.24 430.02 123.65C419.41 127.93 356.67 153.22 323.89 229.13C321.72 234.23 320.07 238.6 318.98 241.62Z" fill="url(#paint2_linear)" fill-opacity="0.8"/>
<path d="M278.319 139.64C278.199 147.31 277.939 158.86 277.319 172.88C274.649 230.76 269.099 282.71 263.419 326.19C262.589 338.65 261.419 351.09 260.279 363.53C261.099 387.59 263.049 411.53 267.579 435.26C268.189 433.39 268.759 431.74 268.949 431.07C303.669 312.31 285.769 172.44 278.319 139.64Z" fill="#683C11"/>
<path d="M280.051 244.09C277.211 247.26 274.321 250.44 271.531 253.72C196.471 244.15 133.391 225.72 113.891 216.93C121.431 218.34 132.791 220.39 146.661 222.55C197.661 230.5 244.451 235.26 284.981 238.4C283.361 240.31 281.731 242.22 280.051 244.09Z" fill="#683C11"/>
<path d="M277.03 244.09C279.87 247.26 282.76 250.44 285.54 253.72C360.61 244.15 423.69 225.72 443.19 216.91C435.65 218.32 424.28 220.37 410.41 222.53C359.41 230.48 312.63 235.24 272.1 238.38C273.72 240.31 275.35 242.22 277.03 244.09Z" fill="#683C11"/>
<path d="M386.58 386.51C387.8 383.88 349.13 350.94 317.82 361.29C308.43 364.4 301.7 370.75 287.66 371.29C278.423 371.501 269.28 369.39 261.07 365.15C264.82 371.49 271.28 379.98 281.54 383.32C297.61 388.55 308.36 376.32 330.27 373.32C362.3 368.93 385.63 388.55 386.58 386.51Z" fill="#683C11"/>
<path d="M358 406.93C359.33 406.02 354.42 381.53 338.57 378.59C333.81 377.71 329.08 378.97 323.3 375.77C319.533 373.614 316.507 370.368 314.62 366.46C314.09 370.27 313.95 375.73 316.99 379.77C321.74 386.09 329.99 383.15 339.69 387.13C353.89 392.93 356.96 407.58 358 406.93Z" fill="#683C11"/>
<path d="M262.89 398.7C257.57 400.98 252.97 399.36 248.52 398.48C248.258 398.566 247.991 398.636 247.721 398.69C246.748 398.875 245.742 398.741 244.851 398.31C244.355 398.572 243.822 398.757 243.27 398.86C242.38 399.027 241.459 398.933 240.62 398.59C225.62 402.96 221.41 432.18 222.86 433.79C224.09 435.16 227.31 414.38 243.86 410.3C255.22 407.51 264.93 414.48 270.37 406.63C273.84 401.63 273.55 393.49 272.83 387.63C271.23 391.46 268.28 396.4 262.89 398.7Z" fill="#683C11"/>
<path d="M243.289 398.86C242.3 399.05 241.276 398.917 240.369 398.48C239.014 398.957 237.613 399.292 236.189 399.48C229.269 400.36 225.529 397.15 220.699 396.1C204.619 392.6 187.969 415.5 188.749 416.97C189.359 418.1 199.419 404.42 215.439 404.32C226.439 404.26 232.519 410.6 240.039 406.12C242.849 404.304 245.11 401.756 246.579 398.75C245.982 398.721 245.397 398.572 244.859 398.31C244.367 398.572 243.837 398.757 243.289 398.86V398.86Z" fill="#683C11"/>
<path d="M225.79 389.5C225.08 389.08 225.79 374.07 233.33 370.98C235.61 370.05 238.01 370.39 240.62 367.98C242.378 366.258 243.627 364.085 244.23 361.7C244.75 363.92 245.23 367.16 244 369.82C242.11 373.99 237.88 372.94 233.38 376.14C226.81 380.83 226.35 389.83 225.79 389.5Z" fill="#683C11"/>
<path d="M280.609 379.58C281.609 376.87 240.939 346.51 210.369 358.88C201.189 362.6 194.889 369.37 180.889 370.81C171.682 371.623 162.419 370.11 153.949 366.41C158.099 372.49 165.099 380.54 175.559 383.21C191.939 387.39 201.869 374.52 223.559 370.07C255.239 363.58 279.799 381.68 280.609 379.58Z" fill="#683C11"/>
<path d="M339.739 424.21C341.159 422.35 324.739 391.21 302.419 394.73C295.699 395.78 289.879 399.73 280.869 398.11C274.975 396.945 269.605 393.933 265.539 389.51C266.359 394.97 268.359 402.51 274.029 406.51C282.919 412.89 292.719 404.98 307.339 405.8C328.699 407.05 338.639 425.66 339.739 424.21Z" fill="#683C11"/>
</g>
<defs>
<linearGradient id="paint0_linear" x1="402.887" y1="226.78" x2="172.423" y2="180.467" gradientUnits="userSpaceOnUse">
<stop stop-color="#CD410D"/>
<stop offset="1" stop-color="#FF9659"/>
</linearGradient>
<linearGradient id="paint1_linear" x1="450.808" y1="270.751" x2="49.4979" y2="-41.6491" gradientUnits="userSpaceOnUse">
<stop stop-color="#CD410D"/>
<stop offset="1" stop-color="#FF9659"/>
</linearGradient>
<linearGradient id="paint2_linear" x1="769.789" y1="270.751" x2="368.478" y2="-41.6491" gradientUnits="userSpaceOnUse">
<stop stop-color="#CD410D"/>
<stop offset="1" stop-color="#FF9659"/>
</linearGradient>
<clipPath id="clip0">
<rect width="573.03" height="435.26" fill="white"/>
</clipPath>
</defs>
</svg>
